<svg xmlns="http://www.w3.org/2000/svg" version="1.1" xmlns:xlink="http://www.w3.org/1999/xlink" xmlns:svgjs="http://svgjs.dev/svgjs" width="960" height="540" preserveAspectRatio="none" viewBox="0 0 960 540"><g mask="url(&quot;#SvgjsMask1316&quot;)" fill="none"><rect width="960" height="540" x="0" y="0" fill="rgba(0, 48, 73, 1)"></rect><path d="M0 19.76C0.93 8.64 0.77 1.53 11.25 0C68.27 -8.35 73.13 0 135 0C202.5 0 202.5 0 270 0C337.5 0 337.5 0 405 0C472.5 0 472.5 0 540 0C607.5 0 607.5 0 675 0C729.79 0 747.01 -23.25 784.57 0C814.51 18.54 792.4 83.57 810 83.57C829.49 83.57 823.06 22.09 858.75 0C890.56 -19.69 901.88 0 945 0C1012.5 0 1046.25 -33.75 1080 0C1113.75 33.75 1080 67.5 1080 135C1080 202.5 1080 202.5 1080 270C1080 337.5 1080 337.5 1080 405C1080 443.57 1088.94 445.96 1080 482.14C1072.26 513.46 1073.41 528.53 1046.65 540C1005.91 557.46 995.83 540 945 540C888.16 540 882.31 551.33 831.32 540C814.81 536.33 821.72 510 810 510C796.85 510 800.44 535.81 781.58 540C732.94 550.81 728.29 540 675 540C607.5 540 607.5 540 540 540C483.38 540 480.18 548.09 426.77 540C412.68 537.87 417.32 519.55 405 519.55C386.58 519.55 386.83 536.74 365.29 540C319.33 546.96 317.64 540 270 540C228.46 540 217.71 559.24 186.92 540C150.21 517.06 172.08 459.12 135 455.63C78.62 450.32 37.93 536.62 0 522.39C-29.57 511.3 0 463.69 0 405C0 337.5 0 337.5 0 270C0 202.5 0 202.5 0 135C0 77.38 -4.7 76.14 0 19.76" stroke="rgba(102, 155, 188, 1)" stroke-width="2"></path><path d="M405 80.08C386.58 80.08 369.78 109.68 369.78 135C369.78 153.84 386.86 168.4 405 168.4C424.47 168.4 445 154.17 445 135C445 110.01 424.19 80.08 405 80.08" stroke="rgba(102, 155, 188, 1)" stroke-width="2"></path><path d="M135 167.59C116.01 167.59 97.88 219 97.88 270C97.88 318.11 116.02 365.81 135 365.81C154.12 365.81 174.08 318.13 174.08 270C174.08 219.02 154.11 167.59 135 167.59" stroke="rgba(102, 155, 188, 1)" stroke-width="2"></path><path d="M675 192.86C643.74 192.86 585 243.41 585 270C585 290.55 633.14 287.14 675 287.14C685.07 287.14 688.85 280.35 688.85 270C688.85 233.21 695.67 192.86 675 192.86" stroke="rgba(102, 155, 188, 1)" stroke-width="2"></path><path d="M0 102.07C22.7 49.35 17.33 30.85 58.13 0C84.83 -20.19 96.56 0 135 0C202.5 0 202.5 0 270 0C337.5 0 337.5 0 405 0C472.5 0 472.5 0 540 0C607.5 0 607.5 0 675 0C705.33 0 735.65 -15.48 735.65 0C735.65 26.37 707.73 43.88 675 83.7C652.26 111.38 650.31 109.81 624.71 135C582.81 176.22 579.97 173.62 540 216.51C517.07 241.12 498.91 240.85 498.91 270C498.91 313.32 502.73 346.48 540 361.45C590.77 381.84 617.32 368.16 675 340.71C713.38 322.44 703.72 305.48 732.12 270C771.22 221.14 759.15 200.76 810 172.02C865.59 140.6 878.79 164.7 945 149.67C960.35 146.19 972.36 149.12 973.13 135C976.45 74.28 925.48 34.99 953.18 0C978.92 -32.51 1049.29 -32.7 1080 0C1112.7 34.8 1080 67.5 1080 135C1080 202.5 1080 202.5 1080 270C1080 337.5 1080 337.5 1080 405C1080 409.13 1082.89 413.27 1080 413.27C1071.64 413.27 1068.88 408.75 1057.5 405C1001.38 386.53 999.36 368.84 945 368.84C911.47 368.84 881.72 386.67 881.72 405C881.72 423.5 920.64 416.24 945 442.5C983.25 483.74 1006.94 508.27 1006.94 540C1006.94 557.02 975.97 540 945 540C910.36 540 901.31 557.53 875.72 540C833.81 511.28 846.12 447.5 810 447.5C769.44 447.5 771.58 506.28 722.37 540C704.08 552.53 698.68 540 675 540C607.5 540 607.5 540 540 540C510.61 540 505.5 552.88 481.21 540C438 517.09 448.44 469.87 405 468.41C342.84 466.32 322.16 548.91 270 532.89C218.92 517.2 211.86 473.05 198.53 405C186.11 341.61 224.3 336.19 218.49 270C212.45 201.19 204.58 197.75 174.84 135C162.83 109.66 158.66 93.81 135 93.81C95.34 93.81 64.68 98.41 48.21 135C25.03 186.5 51.41 202.53 55.69 270C59.97 337.53 82.92 348.42 65.32 405C55.08 437.93 20.95 449.02 0 449.02C-11.71 449.02 0 427.01 0 405C0 337.5 0 337.5 0 270C0 202.5 0 202.5 0 135C0 118.53 -6.36 116.85 0 102.07" stroke="rgba(102, 155, 188, 1)" stroke-width="2"></path><path d="M405 22.88C367.39 22.88 333.1 83.3 333.1 135C333.1 173.46 367.97 203.2 405 203.2C444.76 203.2 486.67 174.14 486.67 135C486.67 83.98 444.17 22.88 405 22.88" stroke="rgba(102, 155, 188, 1)" stroke-width="2"></path><path d="M135 36.61C114.91 36.61 105 11.2 105 0C105 -7.1 120 0 135 0C186.43 0 237.86 -8.88 237.86 0C237.86 9.43 181.34 36.61 135 36.61" stroke="rgba(102, 155, 188, 1)" stroke-width="2"></path><path d="M230.16 135C231.75 81.05 253.14 29.35 270 29.35C286.26 29.35 267.98 91.06 296.41 135C335.48 195.38 348.9 188.68 405 237.99C425.7 256.18 444.41 245.78 450 270C463.69 329.28 460.88 348.33 443.57 405C438.38 421.97 424.63 417.27 405 417.27C374.19 417.27 367.04 422.71 342.69 405C299.54 373.62 297.69 365.94 270 319.09C257.79 298.44 268.13 294.22 262.89 270C248.21 202.17 228.2 201.37 230.16 135" stroke="rgba(102, 155, 188, 1)" stroke-width="2"></path><path d="M528.33 135C528.33 96.91 532.51 56.25 540 56.25C547.61 56.25 558.53 98.36 558.53 135C558.53 146.65 548.26 152.83 540 152.83C533.16 152.83 528.33 145.2 528.33 135" stroke="rgba(102, 155, 188, 1)" stroke-width="2"></path><path d="M675 16.2C641.26 16.2 601.36 4.1 601.36 0C601.36 -4 638.18 0 675 0C680.87 0 686.74 -3 686.74 0C686.74 5.1 683.95 16.2 675 16.2" stroke="rgba(102, 155, 188, 1)" stroke-width="2"></path><path d="M1080 67.5C1073.67 67.5 1055.45 25.15 1055.45 0C1055.45 -8.6 1076.73 -9 1080 0C1089 24.75 1085.95 67.5 1080 67.5" stroke="rgba(102, 155, 188, 1)" stroke-width="2"></path><path d="M0 223.04C3.44 223.04 13.5 246.32 13.5 270C13.5 299.8 3.42 330 0 330C-3.33 330 0 300 0 270C0 246.52 -3.31 223.04 0 223.04" stroke="rgba(102, 155, 188, 1)" stroke-width="2"></path><path d="M775.38 270C775.38 245.37 785.25 233.3 810 226.45C870.06 209.82 878.31 231.34 945 223.04C1013.31 214.54 1036.67 177.79 1080 192.86C1104.17 201.27 1080 231.43 1080 270C1080 288 1094.21 301.94 1080 306C1026.71 321.23 1009.66 294.1 945 308.57C874.66 324.31 859.96 377.79 810 366.43C775.15 358.51 775.38 315.36 775.38 270" stroke="rgba(102, 155, 188, 1)" stroke-width="2"></path><path d="M641.25 405C641.25 392.51 657.85 394.29 675 394.29C700.68 394.29 726.92 390 726.92 405C726.92 429.1 697.71 472.5 675 472.5C654.87 472.5 641.25 431.62 641.25 405" stroke="rgba(102, 155, 188, 1)" stroke-width="2"></path><path d="M535.65 540C535.65 533.72 533.93 524.12 540 524.12C555.39 524.12 578.57 535.87 578.57 540C578.57 543.81 559.29 540 540 540C537.83 540 535.65 541.66 535.65 540" stroke="rgba(102, 155, 188, 1)" stroke-width="2"></path><path d="M920.13 540C920.13 528.92 933.02 505 945 505C956.57 505 967.24 528.61 967.24 540C967.24 546.11 956.12 540 945 540C932.57 540 920.13 546.42 920.13 540" stroke="rgba(102, 155, 188, 1)" stroke-width="2"></path></g><defs><mask id="SvgjsMask1316"><rect width="960" height="540" fill="#ffffff"></rect></mask></defs></svg>