<svg xmlns="http://www.w3.org/2000/svg" width="92" height="92" viewBox="0 0 92 92" version="1.1"><path d="M 35.709 25.250 C 33.920 26.587, 24 50.910, 24 53.961 C 24 58.490, 29.349 56.441, 30.607 51.430 C 31.177 49.160, 31.656 49, 37.908 49 L 44.598 49 45.829 52.405 C 47.274 56.401, 49.345 57.512, 51.440 55.417 C 53.089 53.768, 53.534 55.280, 45.565 35.500 C 42.366 27.560, 40.024 24, 38 24 C 37.660 24, 36.629 24.563, 35.709 25.250 M 59.250 24.662 C 58.326 25.035, 58 29.169, 58 40.500 C 58 56.470, 58.375 57.823, 62.250 55.830 C 63.793 55.036, 64 53.241, 64 40.665 C 64 25.093, 63.378 22.997, 59.250 24.662 M 35.397 38 L 33.295 44 38 44 L 42.705 44 40.603 38 C 39.447 34.700, 38.275 32, 38 32 C 37.725 32, 36.553 34.700, 35.397 38" stroke="none" fill="#36541e" fill-rule="evenodd"/><path d="M -0 46.010 L -0 92.020 46.250 91.760 L 92.500 91.500 92.760 45.750 L 93.020 0 46.510 0 L 0 0 -0 46.010 M 0.461 46.500 C 0.461 71.800, 0.591 82.007, 0.749 69.181 C 0.908 56.356, 0.907 35.656, 0.749 23.181 C 0.590 10.707, 0.461 21.200, 0.461 46.500 M 35.709 25.250 C 33.920 26.587, 24 50.910, 24 53.961 C 24 58.490, 29.349 56.441, 30.607 51.430 C 31.177 49.160, 31.656 49, 37.908 49 L 44.598 49 45.829 52.405 C 47.274 56.401, 49.345 57.512, 51.440 55.417 C 53.089 53.768, 53.534 55.280, 45.565 35.500 C 42.366 27.560, 40.024 24, 38 24 C 37.660 24, 36.629 24.563, 35.709 25.250 M 59.250 24.662 C 58.326 25.035, 58 29.169, 58 40.500 C 58 56.470, 58.375 57.823, 62.250 55.830 C 63.793 55.036, 64 53.241, 64 40.665 C 64 25.093, 63.378 22.997, 59.250 24.662 M 35.397 38 L 33.295 44 38 44 L 42.705 44 40.603 38 C 39.447 34.700, 38.275 32, 38 32 C 37.725 32, 36.553 34.700, 35.397 38" stroke="none" fill="#fbfbfb" fill-rule="evenodd"/></svg>